PathFileType	4	(X/Y/Z)	C:\Github\BTS_project\Data\sports2d_results\test4 Exam_2026-03-06_143128_tvc2_Sports2D\test4 Exam_2026-03-06_143128_tvc2_Sports2D_m_person00.trc
DataRate	CameraRate	NumFrames	NumMarkers	Units	OrigDataRate	OrigDataStartFrame	OrigNumFrames
30.0	30.0	9	22	m	30.0	200	321
Frame#	Time	Hip			RHip			RKnee			RAnkle			RBigToe			RSmallToe			RHeel			LHip			LKnee			LAnkle			LBigToe			LSmallToe			LHeel			Neck			Head			Nose			RShoulder			RElbow			RWrist			LShoulder			LElbow			LWrist			
		X1	Y1	Z1	X2	Y2	Z2	X3	Y3	Z3	X4	Y4	Z4	X5	Y5	Z5	X6	Y6	Z6	X7	Y7	Z7	X8	Y8	Z8	X9	Y9	Z9	X10	Y10	Z10	X11	Y11	Z11	X12	Y12	Z12	X13	Y13	Z13	X14	Y14	Z14	X15	Y15	Z15	X16	Y16	Z16	X17	Y17	Z17	X18	Y18	Z18	X19	Y19	Z19	X20	Y20	Z20	X21	Y21	Z21	X22	Y22	Z22
200	6.687499999999999	2.259293303062853	0.630065307119653	0.0301	2.1801573286242557	0.6980179233264823	0.0301	1.9140412041604569	0.41900916335210775	0.129	1.7033463333748706	0.17481150642261717	0.023	1.6150299031436182	0.06604395061717311	0.2179	1.5806458809801225	0.11675862439450287	0.1804	1.6827647638821275	0.1317038726598543	-0.0119	2.339706590644149	0.5553247403912973	0.0301	2.1019042853139513	0.2971963795834052	0.129	2.0484262756973295	0.32385528260552543	0.023	1.9713365343226075	0.2209866471572986	0.2179	2.005682904330902	0.21168470756505753	0.1804	2.063860429147673	0.35464158861528383	-0.0119	2.616283239927279	0.9981519853824855	0.0008	2.8164873288665926	1.2058000263053354	0.0655	2.674751733793125	1.0601374479643093	0.1076	2.466862896206378	1.1272486806247994	-0.01275	2.230824315490843	1.1879187016837571	0.0702	2.00067754391173	1.1989961406179774	0.1076	2.741020584780463	0.8451151269211863	-0.01275	2.7713641082905944	0.6239635626687329	0.0702	2.8201418121412463	0.45603657641695583	0.1076
201	6.720937499999999	2.2660242778369626	0.6382809827541764	0.0301	2.1869976639332736	0.7065001761297287	0.0301	1.9183020799083705	0.4291155961013888	0.129	1.689719412605718	0.1705314720944685	0.023	1.6061406178846127	0.06521050563413663	0.2179	1.5721417709056678	0.11744544320780147	0.1804	1.6741091378312805	0.13147134416512846	-0.0119	2.3441045455813176	0.558465930089115	0.0301	2.094273990867934	0.29656527370405544	0.129	2.057659679366202	0.3159199759969737	0.023	1.9720532366667696	0.21368223023135838	0.2179	2.0089098928163573	0.2040241943523998	0.1804	2.0829784117303944	0.35408828466390563	-0.0119	2.631955625598843	1.0134277469937747	0.0008	2.8297431491100125	1.2251668739452293	0.0655	2.686974665941224	1.0747930785275122	0.1076	2.47886203525552	1.143386119819071	-0.01275	2.237073573505316	1.2003209953119207	0.0702	1.9945930913876582	1.1927979115918979	0.1076	2.7576786287481996	0.8599903881732425	-0.01275	2.7806535402152908	0.6365273942261628	0.0702	2.8109361198295435	0.467617674961898	0.1076
202	6.754374999999999	2.266558335820998	0.6405210876133531	0.0301	2.1881441426566233	0.7104199316208387	0.0301	1.916132543269725	0.43400483301396076	0.129	1.6596796468448825	0.15376014744292962	0.023	1.58823416263524	0.060204659420899795	0.2179	1.5541825124242634	0.1097318212720473	0.1804	1.6443065319448344	0.11058952108328599	-0.0119	2.3434744277398307	0.5577401679109116	0.0301	2.083588110606231	0.2936089879012578	0.129	2.058732163651715	0.30734224441300123	0.023	1.971403959444534	0.213745486979064	0.2179	2.0120384996171734	0.20510839565788197	0.1804	2.08763160281391	0.35590798246190314	-0.0119	2.6393877028534645	1.0214558802557083	0.0008	2.8335567418731396	1.23674140100941	0.0655	2.6898009262644753	1.0837335300483448	0.1076	2.4849064301285346	1.15283824169641	-0.01275	2.238889473109124	1.2081305298766156	0.0702	1.9883050003435088	1.1811935527498476	0.1076	2.7675455856313613	0.8675682174765884	-0.01275	2.785281880703402	0.6417256289402741	0.0702	2.7912200858515352	0.4710674409243129	0.1076
203	6.787812499999999	2.2601509911436217	0.6374072679980106	0.0301	2.1823924447160925	0.7088312004481079	0.0301	1.905044239821037	0.42961996866344726	0.129	1.6218704598503364	0.1314218026748739	0.023	1.56081931137584	0.05036776301281502	0.2179	1.5273714445438624	0.09593886952273407	0.1804	1.6030112811581247	0.07910449458210492	-0.0119	2.3368837064439782	0.5532879678221694	0.0301	2.068742314655636	0.28700466376874995	0.129	2.0502716191270847	0.3023436895270877	0.023	1.9642350025624697	0.22164228675876968	0.2179	2.0109710085797534	0.2145762131069802	0.1804	2.078865626848916	0.35859760316381367	-0.0119	2.6362560829791364	1.0230105924542259	0.0008	2.827989818126591	1.2396668730328488	0.0655	2.6821043286524495	1.0859061491350557	0.1076	2.4843944400944413	1.1573265299435425	-0.01275	2.237231999857114	1.2119268263814165	0.0702	1.983933275306899	1.1652798802847022	0.1076	2.7704551986327575	0.8695394438314501	-0.01275	2.784501850029041	0.6413545204185457	0.0702	2.7618796038609084	0.4682522778805011	0.1076
204	6.821249999999999	2.2461070959521745	0.6277194282396212	0.0301	2.1682829799871723	0.6994118160474198	0.0301	1.8841290888256519	0.4148459384434555	0.129	1.5837103210597472	0.1100017317321024	0.023	1.530651305720344	0.033176877530703655	0.2179	1.4954790746138789	0.07658332536238444	0.1804	1.5597439448738315	0.05302045797065481	-0.0119	2.3222844761663284	0.5419394650635301	0.0301	2.047889924258589	0.2727916880224012	0.129	2.0283641604170506	0.29503508575628723	0.023	1.938182731227528	0.22316688564882736	0.2179	1.993020097195513	0.21572923712767506	0.1804	2.059833613244084	0.3515709506106567	-0.0119	2.621764789797661	1.0158780175334583	0.0008	2.8123608536077778	1.2341069606526678	0.0655	2.6638852589704514	1.0794516891669474	0.1076	2.47380713196734	1.1537752870437825	-0.01275	2.228756980991776	1.2086078995978178	0.0702	1.9776153233569498	1.145713381972399	0.1076	2.763147703811752	0.8645969027764832	-0.01275	2.7758997499793905	0.6339100041055459	0.0702	2.7227082976526895	0.4608900663587077	0.1076
205	6.854687499999999	2.2244070676235634	0.6094704396307432	0.0301	2.1463640953690644	0.6822491322860911	0.0301	1.8550613890295864	0.39226159504079017	0.129	1.5467786203717429	0.0910729955943034	0.023	1.5044703988098596	0.007742155434739626	0.2179	1.4617677923636285	0.050658574583372425	0.1804	1.5180072664681503	0.04010934350819996	-0.0119	2.300031705822849	0.5227430475199004	0.0301	2.0183706475098875	0.24750044354391804	0.129	1.990964399578096	0.27457758106614916	0.023	1.8947765213444718	0.2055009367245435	0.2179	1.9569703351945678	0.19529928215687917	0.1804	2.0298887886132673	0.3282400340669026	-0.0119	2.59623717722708	0.9979512762540367	0.0008	2.7875230377672753	1.22062663270154	0.0655	2.636187382012983	1.0637843649261418	0.1076	2.4502057170146174	1.1383437559334546	-0.01275	2.2085737559934175	1.196131031409369	0.0702	1.9610331420020752	1.1222642398450922	0.1076	2.7415602709567928	0.8500930192915677	-0.01275	2.756442914085821	0.6171610220474013	0.0702	2.6741272825791547	0.44925852173759806	0.1076
206	6.888124999999999	2.194441320597253	0.5837713955928224	0.0301	2.1165651167300314	0.6601729177180568	0.0301	1.8205192110236539	0.36652773484455436	0.129	1.51016463724471	0.07096968473905595	0.023	1.4761329852688552	-0.024986660034991306	0.2179	1.4244938185230875	0.017736738667275626	0.1804	1.4784903544940513	0.030489937291701883	-0.0119	2.271819557806893	0.4980220527920103	0.0301	1.9784678108135498	0.2115458261842981	0.129	1.9440564377959202	0.24257052009254304	0.023	1.8514615848990124	0.17609549460859864	0.2179	1.9163800290014945	0.1622238906562306	0.1804	1.9894356499973067	0.2966833398680914	-0.0119	2.5605603416956813	0.9723461786485011	0.0008	2.757012323464522	1.2006043435846268	0.0655	2.601637311448651	1.0408251504052073	0.1076	2.4132982355971366	1.113183043411959	-0.01275	2.173805630252272	1.1762133887511848	0.0702	1.9289700310378834	1.0956684592131305	0.1076	2.7065247145164357	0.8255356985486325	-0.01275	2.7235312150210427	0.5929387403699036	0.0702	2.6203047472435346	0.43296946111208123	0.1076
207	6.921562499999999	2.158333316278808	0.555819092504301	0.0301	2.079552223582317	0.6364177638044001	0.0301	1.7846121821189058	0.3424585280194656	0.129	1.4777277331593037	0.05005979850005411	0.023	1.4382992923623008	-0.06091396736858977	0.2179	1.3845456539718355	-0.01623508782924565	0.1804	1.4454577449962198	0.014292565808235153	-0.0119	2.2395974953470303	0.4705011206847719	0.0301	1.9337799460438414	0.17241578403024413	0.129	1.8973500376103039	0.21345181563525453	0.023	1.8145507553100826	0.14803866158130463	0.2179	1.8761449186936354	0.13085602712187294	0.1804	1.944872356648349	0.2721597523575879	-0.0119	2.517915714456106	0.9452472292917329	0.0008	2.7243026169415088	1.1762094458409968	0.0655	2.5643172489485395	1.0152878528676599	0.1076	2.36500413508536	1.0842846691915633	-0.01275	2.126420013632452	1.1497825224945413	0.0702	1.8834384874408985	1.0686499102331526	0.1076	2.6644679936935796	0.7936046702161498	-0.01275	2.678283229049054	0.5657237505601409	0.0702	2.5688673302894585	0.41230790161368586	0.1076
208	6.954999999999999	2.123605687460472	0.5306218856597985	0.0301	2.041429310743755	0.6138500241115172	0.0301	1.753181277513214	0.32298402705313034	0.129	1.4575591070006266	0.03730770114955149	0.023	1.4014974005567071	-0.08866943208024507	0.2179	1.3529871101754924	-0.0378252350525388	0.1804	1.4273523552058887	0.0006324195485940122	-0.0119	2.208043238415033	0.44350233814222595	0.0301	1.8979867517077593	0.1431908894767097	0.129	1.8537896727554979	0.19204714345025742	0.023	1.7678099424275557	0.11393155942134216	0.2179	1.8216632596631883	0.0924745858138748	0.1804	1.901019905004152	0.25670851902365976	-0.0119	2.4750507911505175	0.9203480521617183	0.0008	2.6910809837562133	1.151290852982497	0.0655	2.52822010244171	0.9925871502863535	0.1076	2.3109985133746296	1.0552783506622345	-0.01275	2.071752818701561	1.1155245314928344	0.0702	1.829152116748597	1.0432262328890813	0.1076	2.623638113597409	0.7604011295048839	-0.01275	2.6286764344774824	0.5397340836995794	0.0702	2.527785352703152	0.38626461578002924	0.1076
